<svg xmlns="http://www.w3.org/2000/svg" width="32" height="32" viewBox="0 0 32 32">
  <defs>
    <linearGradient id="plateGrad" x1="0%" y1="0%" x2="100%" y2="100%">
      <stop offset="0%" stop-color="#f97316" />
      <stop offset="100%" stop-color="#ea580c" />
    </linearGradient>
    <linearGradient id="utensils" x1="0%" y1="0%" x2="100%" y2="100%">
      <stop offset="0%" stop-color="#475569" />
      <stop offset="100%" stop-color="#334155" />
    </linearGradient>
  </defs>
  
  <!-- Background circle -->
  <circle cx="16" cy="16" r="15" fill="#fff7ed" stroke="#fed7aa" stroke-width="2"/>
  
  <!-- Main plate -->
  <circle cx="16" cy="17" r="9" fill="url(#plateGrad)" opacity="0.9"/>
  <circle cx="16" cy="17" r="7" fill="none" stroke="#ffffff" stroke-width="0.5" opacity="0.6"/>
  
  <!-- Fork (left) -->
  <g transform="translate(8, 8)">
    <rect x="1" y="1" width="0.8" height="8" fill="url(#utensils)" rx="0.2"/>
    <rect x="0.2" y="1" width="0.4" height="2" fill="url(#utensils)" rx="0.1"/>
    <rect x="1.4" y="1" width="0.4" height="2" fill="url(#utensils)" rx="0.1"/>
  </g>
  
  <!-- Knife (right) -->
  <g transform="translate(22, 8)">
    <rect x="1" y="1" width="0.8" height="8" fill="url(#utensils)" rx="0.2"/>
    <polygon points="0.6,1 1.8,1 1.4,3 1,3" fill="url(#utensils)"/>
  </g>
  
  <!-- Spoon (top) -->
  <g transform="translate(14, 4)">
    <rect x="1.6" y="4" width="0.8" height="6" fill="url(#utensils)" rx="0.2"/>
    <ellipse cx="2" cy="2.5" rx="1.5" ry="2" fill="url(#utensils)"/>
  </g>
  
  <!-- Food elements on plate -->
  <circle cx="14" cy="16" r="1.5" fill="#fbbf24" opacity="0.8"/>
  <circle cx="18" cy="15" r="1" fill="#10b981" opacity="0.8"/>
  <circle cx="16" cy="19" r="1.2" fill="#ef4444" opacity="0.8"/>
</svg>